<svg width="24" height="24" viewBox="0 0 24 24" fill="none" xmlns="http://www.w3.org/2000/svg">
<mask id="mask0" mask-type="alpha" maskUnits="userSpaceOnUse" x="2" y="3" width="20" height="18">
<path d="M9.9979 19.3274V14.3274H13.9979V19.3274C13.9979 19.8774 14.4479 20.3274 14.9979 20.3274H17.9979C18.5479 20.3274 18.9979 19.8774 18.9979 19.3274V12.3274H20.6979C21.1579 12.3274 21.3779 11.7574 21.0279 11.4574L12.6679 3.92736C12.2879 3.58736 11.7079 3.58736 11.3279 3.92736L2.9679 11.4574C2.6279 11.7574 2.8379 12.3274 3.2979 12.3274H4.9979V19.3274C4.9979 19.8774 5.4479 20.3274 5.9979 20.3274H8.9979C9.5479 20.3274 9.9979 19.8774 9.9979 19.3274Z" fill="#0F172A"/>
</mask>
<g mask="url(#mask0)">
<rect width="24" height="24" fill="#9B9B9B"/>
</g>
</svg>
