<svg width="24" height="24" viewBox="0 0 24 24" fill="none" xmlns="http://www.w3.org/2000/svg">
<path d="M20 4.34256C20 3.29716 18.9568 2.50701 17.8236 2.69401L9.5159 4.06494C8.63807 4.20979 8 4.9037 8 5.71348V17.9998H9.84615V9.06462L18.1538 7.6937V16.3243H20V4.34256Z" fill="#9B9B9B"/>
<path d="M16.8889 19.5557C18.6071 19.5557 20 18.1628 20 16.4446C20 14.7264 18.6071 13.3335 16.8889 13.3335C15.1707 13.3335 13.7778 14.7264 13.7778 16.4446C13.7778 18.1628 15.1707 19.5557 16.8889 19.5557Z" fill="#9B9B9B"/>
<path d="M7.11111 21.3335C8.82933 21.3335 10.2222 19.9406 10.2222 18.2224C10.2222 16.5042 8.82933 15.1113 7.11111 15.1113C5.39289 15.1113 4 16.5042 4 18.2224C4 19.9406 5.39289 21.3335 7.11111 21.3335Z" fill="#9B9B9B"/>
</svg>
